<?xml version="1.0" encoding="UTF-8"?><svg id="Lager_2" xmlns="http://www.w3.org/2000/svg" viewBox="0 0 329.44 93.19"><defs><style>.cls-1{fill:none;stroke:#1d1d1b;stroke-miterlimit:10;}.cls-2{fill:#1d1d1b;}</style></defs><g id="Lager_1-2"><g><g><path class="cls-2" d="M13.15,48.76l.7-10.76,.95-22.29,.32-10.3c-5.74,.02-10.76,.13-15.07,.32C.18,3.86,.26,2.2,.29,.77c5.95,.02,12.37,.04,19.26,.04l11.25-.04h5.98c-.16,2.08-.25,3.73-.25,4.96-3.63-.21-7.65-.32-12.06-.32h-2.88l-.73,15.56-.73,21.92v5.87l-3.38-.07c-.31,0-1.5,.02-3.59,.07Z"/><path class="cls-2" d="M69.29,43.17c-.28,1.29-.56,2.93-.84,4.92-2.25,.56-4.2,.94-5.85,1.14-1.65,.2-3.3,.3-4.94,.3-2.93,0-5.56-.35-7.89-1.05-2.33-.7-4.33-1.93-5.99-3.67-1.66-1.75-2.86-3.74-3.59-5.99-.73-2.25-1.09-4.63-1.09-7.14,0-3.49,.67-6.73,2-9.72s3.35-5.34,6.03-7.05c2.68-1.71,6.09-2.57,10.21-2.57,2.13,0,4.17,.31,6.12,.93,1.95,.62,3.56,1.56,4.85,2.83,1.29,1.27,2.29,2.83,2.99,4.69s1.05,3.9,1.05,6.1c0,.84-.07,1.66-.21,2.46h-26.82c-.09,1.29-.14,2.27-.14,2.95,0,2.46,.52,4.73,1.55,6.8,1.03,2.07,2.55,3.64,4.57,4.71,2.02,1.07,4.34,1.6,6.96,1.6,3.02,0,6.7-.75,11.04-2.25Zm-23.7-16.73h20.95c-.02-1.48-.12-2.62-.28-3.45-.16-.82-.47-1.67-.91-2.55-.45-.88-1.05-1.64-1.81-2.29-.76-.64-1.68-1.14-2.74-1.48-1.07-.34-2.22-.51-3.46-.51-1.34,0-2.61,.19-3.81,.56-1.21,.38-2.27,.89-3.2,1.55-.93,.66-1.71,1.42-2.36,2.3-.65,.88-1.12,1.73-1.44,2.55-.32,.82-.63,1.92-.93,3.3Z"/><path class="cls-2" d="M104.55,43.42c-.05,.38-.17,1.07-.37,2.09-.2,1.02-.37,2.02-.51,3.01-1.71,.4-3.36,.67-4.94,.81s-2.97,.21-4.17,.21c-2.53,0-4.87-.34-7.01-1.02s-4.01-1.8-5.61-3.36c-1.59-1.56-2.77-3.49-3.52-5.8-.75-2.31-1.12-4.74-1.12-7.29,0-3.45,.61-6.71,1.83-9.81,1.22-3.09,3.14-5.52,5.77-7.28,2.62-1.76,6.2-2.64,10.72-2.64,3.33,0,6.57,.45,9.74,1.34,.14,1.99,.27,3.63,.39,4.92-2.23-.7-4.04-1.18-5.45-1.42s-2.71-.37-3.9-.37c-2.06,0-3.91,.38-5.54,1.12-1.63,.75-3.02,1.82-4.17,3.2-1.15,1.38-1.97,3.02-2.48,4.92-.5,1.9-.76,3.83-.76,5.8,0,2.65,.41,4.97,1.23,6.96,.82,1.99,2.26,3.53,4.31,4.62,2.05,1.09,4.35,1.63,6.91,1.63s5.37-.55,8.65-1.65Z"/><path class="cls-2" d="M112.53,48.76l.88-15.29,.81-20.85,.21-11.85,3.2,.04c.8,0,1.84-.01,3.13-.04l-.77,12.22-.28,7.29c.56-1.01,1.05-1.81,1.46-2.41,.41-.6,.94-1.19,1.58-1.79,.64-.6,1.32-1.11,2.02-1.53,.7-.42,1.49-.79,2.35-1.11,.87-.32,1.91-.58,3.13-.79s2.5-.32,3.83-.32c1.99,0,3.9,.22,5.71,.67s3.37,1.18,4.68,2.21c1.3,1.03,2.19,2.26,2.67,3.69,.48,1.43,.72,2.88,.72,4.35,0,.59-.01,1.36-.03,2.32-.07,1.45-.16,3.15-.28,5.09l-.59,12.92c-.07,1.41-.12,3.13-.14,5.16-1.36-.05-2.41-.07-3.14-.07-.8,0-1.91,.02-3.35,.07,.26-2.53,.56-6.51,.9-11.94s.51-9.2,.51-11.31c0-1.87-.34-3.42-1.02-4.65-.68-1.23-1.81-2.17-3.38-2.83-1.57-.66-3.32-.98-5.24-.98-1.76,0-3.4,.27-4.92,.81-1.38,.49-2.56,1.18-3.53,2.07-.97,.89-1.75,1.98-2.34,3.27-.63,1.38-1.08,2.77-1.34,4.18-.4,2.22-.68,5.31-.84,9.27-.09,2.37-.22,6.4-.39,12.12-1.31-.05-2.3-.07-2.96-.07-.61,0-1.7,.02-3.27,.07Z"/><path class="cls-2" d="M154.93,47.5c-.09-2.23-.25-4.16-.46-5.8,2.48,1.17,4.72,2,6.7,2.48,1.98,.48,3.88,.72,5.71,.72s3.39-.3,4.9-.9,2.65-1.44,3.41-2.53c.76-1.09,1.14-2.34,1.14-3.74,0-.82-.13-1.59-.39-2.3-.26-.71-.67-1.44-1.25-2.18-.57-.74-1.57-1.73-2.99-2.99-1.42-1.25-3.43-2.98-6.03-5.19l-2.6-2.21c-.98-.84-1.88-1.68-2.67-2.51-.8-.83-1.46-1.63-2-2.39-.54-.76-.96-1.45-1.25-2.07-.29-.62-.52-1.31-.69-2.07-.16-.76-.25-1.54-.25-2.34,0-2.02,.55-3.9,1.65-5.66,1.1-1.76,2.76-3.16,4.97-4.22s5.14-1.58,8.77-1.58c2.6,0,5.8,.35,9.6,1.05,.05,1.51,.21,3.36,.49,5.55-3.59-1.27-6.84-1.9-9.77-1.9-2.02,0-3.7,.33-5.06,1-1.36,.66-2.39,1.52-3.09,2.55s-1.05,2.1-1.05,3.2c0,.66,.09,1.3,.28,1.92,.19,.62,.47,1.21,.84,1.78,.54,.82,1.21,1.65,2,2.48,.8,.83,1.9,1.85,3.3,3.04,.35,.28,1.69,1.38,4.03,3.3,2.33,1.92,4.03,3.41,5.1,4.46,1.07,1.05,1.92,2.03,2.55,2.94,.63,.9,1.12,1.88,1.48,2.92,.35,1.04,.53,2.17,.53,3.39,0,1.88-.4,3.6-1.21,5.19s-1.97,2.88-3.48,3.88c-1.51,1.01-3.19,1.72-5.04,2.14-1.85,.42-3.79,.63-5.8,.63-1.62,0-3.29-.12-5.01-.37s-4.18-.8-7.37-1.67Z"/><path class="cls-2" d="M223.81,48.76c-1.15-.05-2.13-.07-2.96-.07-.94,0-1.91,.02-2.92,.07l.17-6.79c-.56,1.05-1.05,1.87-1.46,2.44-.41,.57-.92,1.14-1.53,1.69-.61,.55-1.24,1.01-1.88,1.39-.65,.38-1.4,.71-2.27,1-.87,.29-1.88,.54-3.04,.74-1.16,.2-2.4,.3-3.71,.3-2.86,0-5.3-.43-7.33-1.3s-3.56-2.1-4.6-3.69c-1.04-1.59-1.56-3.77-1.56-6.54,0-.42,.02-1.14,.07-2.14,.05-1.01,.12-2.32,.21-3.94l.59-11.71,.1-3.76c.02-.87,.03-1.97,.03-3.3l3.24,.04c.66,0,1.67-.01,3.03-.04-.33,4.1-.65,8.59-.94,13.46-.3,4.88-.44,7.99-.44,9.35,0,2.06,.33,3.71,1,4.94,.67,1.23,1.78,2.18,3.34,2.85s3.32,1,5.29,1c1.74,0,3.4-.3,5-.91,1.36-.54,2.51-1.27,3.45-2.18,1.01-1.01,1.85-2.31,2.53-3.9,.49-1.17,.87-2.68,1.13-4.54,.16-1.34,.33-3.74,.49-7.21,.19-4.22,.31-8.51,.38-12.87l3.27,.04c.7,0,1.69-.01,2.96-.04-.33,4.22-.71,10.63-1.16,19.23-.26,4.73-.42,10.2-.49,16.38Z"/><path class="cls-2" d="M233.19,48.76l.39-5.1c.07-1.08,.16-2.78,.28-5.1l.84-21.41c.02-1.76,.04-3.09,.04-4.01,1.1,.02,2.11,.04,3.03,.04,.98,0,1.96-.01,2.92-.04l-.31,6.54c.8-1.31,1.52-2.36,2.16-3.13s1.49-1.49,2.55-2.14c1.05-.66,2.26-1.17,3.6-1.53,1.35-.36,2.75-.54,4.2-.54,1.01,0,2,.12,2.99,.35,.98,.23,1.89,.56,2.72,.98s1.55,.9,2.14,1.44c.6,.54,1.08,1.12,1.44,1.76,.36,.63,.73,1.55,1.11,2.74,1.43-2.69,3.22-4.58,5.36-5.66,2.14-1.08,4.54-1.62,7.19-1.62,1.69,0,3.32,.27,4.9,.81,1.58,.54,2.84,1.31,3.78,2.32,.94,1.01,1.56,2.06,1.88,3.15s.47,2.19,.47,3.29-.08,2.81-.24,5.06-.35,5.68-.56,10.28c-.21,4.61-.33,8.44-.35,11.51-1.24-.05-2.22-.07-2.92-.07-.75,0-1.87,.02-3.34,.07,.26-3.16,.48-6.61,.67-10.34l.46-8.72c.12-2.11,.18-3.93,.18-5.45,0-1.37-.14-2.43-.42-3.2-.28-.77-.73-1.45-1.35-2.07-.62-.61-1.39-1.08-2.3-1.4-.91-.32-1.96-.48-3.13-.48-.94,0-1.8,.11-2.6,.32-.75,.21-1.48,.53-2.18,.95-.77,.45-1.47,1-2.07,1.66-.61,.63-1.12,1.35-1.55,2.15-.45,.82-.81,1.8-1.09,2.93-.35,1.41-.6,3.14-.74,5.18-.16,2.18-.29,5.05-.38,8.61l-.28,9.84c-1.36-.05-2.38-.07-3.06-.07-.63,0-1.7,.02-3.2,.07,.23-2.91,.42-5.89,.56-8.96l.42-8.51c.12-2.62,.17-4.86,.17-6.71,0-1.2-.12-2.21-.35-3.04-.23-.83-.67-1.59-1.32-2.29-.64-.69-1.42-1.22-2.34-1.58-.91-.36-1.92-.54-3.02-.54-1.17,0-2.28,.21-3.34,.62-1.05,.41-2.03,1.01-2.92,1.81-.89,.8-1.64,1.78-2.25,2.94-.61,1.16-1.08,2.68-1.42,4.57-.34,1.89-.61,5.17-.81,9.86-.2,4.69-.3,8.64-.3,11.85-1.5-.05-2.53-.07-3.1-.07-.61,0-1.68,.02-3.2,.07Z"/></g><g><path class="cls-2" d="M1.63,88.97v-12.6h3.31c2.16,0,3.79,.52,4.89,1.55s1.65,2.56,1.65,4.58c0,.97-.15,1.86-.46,2.65s-.75,1.48-1.33,2.04-1.28,1-2.11,1.31-1.76,.46-2.79,.46H1.63Zm1.17-11.53v10.47h1.93c.87,0,1.64-.12,2.32-.35s1.26-.58,1.74-1.03,.84-1.02,1.09-1.68,.37-1.44,.37-2.3c0-3.4-1.8-5.1-5.39-5.1H2.8Z"/><path class="cls-2" d="M14.38,77.69c-.22,0-.4-.08-.56-.23s-.24-.35-.24-.58,.08-.42,.24-.57,.35-.22,.56-.22c.11,0,.22,.02,.32,.06s.19,.09,.26,.16,.13,.15,.18,.25,.07,.2,.07,.32-.02,.22-.06,.32-.1,.19-.18,.26-.16,.13-.26,.17-.2,.06-.32,.06Zm-.55,11.28v-9h1.12v9h-1.12Z"/><path class="cls-2" d="M23.92,88.97v-5.19c0-2.03-.74-3.05-2.21-3.05-.39,0-.76,.08-1.09,.23s-.62,.37-.87,.65-.43,.6-.57,.98-.21,.79-.21,1.23v5.15h-1.12v-9h1.12v1.56h.04c.67-1.18,1.67-1.78,3.01-1.78,.98,0,1.73,.32,2.25,.96s.77,1.56,.77,2.77v5.48h-1.12Z"/><path class="cls-2" d="M33.81,87.52v5.59h-1.12v-13.14h1.12v1.72h.04c.33-.63,.78-1.11,1.34-1.44s1.19-.5,1.89-.5c.57,0,1.09,.1,1.54,.31s.84,.5,1.15,.88,.55,.84,.72,1.39,.25,1.16,.25,1.84c0,.74-.09,1.42-.28,2.03s-.46,1.14-.81,1.58-.78,.78-1.28,1.02-1.06,.36-1.69,.36c-1.27,0-2.21-.55-2.84-1.66h-.04Zm0-2.29c0,.41,.07,.8,.21,1.16s.33,.68,.58,.95,.54,.49,.89,.65,.73,.24,1.16,.24c.45,0,.86-.1,1.22-.29s.67-.46,.93-.81,.45-.78,.59-1.27,.21-1.05,.21-1.67c0-.53-.06-1-.19-1.43s-.31-.79-.55-1.09-.52-.53-.86-.69-.71-.24-1.13-.24c-.47,0-.89,.09-1.27,.26s-.69,.41-.96,.71-.47,.65-.61,1.05-.21,.83-.21,1.28v1.2Z"/><path class="cls-2" d="M47.96,88.97v-1.6h-.04c-.29,.57-.69,1.02-1.2,1.34s-1.08,.47-1.72,.47c-.43,0-.82-.06-1.17-.18s-.64-.3-.89-.52-.43-.5-.56-.81-.2-.67-.2-1.05c0-.81,.25-1.46,.76-1.95s1.27-.8,2.29-.94l2.73-.4c0-1.73-.67-2.59-2.01-2.59-1.05,0-2.02,.38-2.92,1.15v-1.23c.19-.13,.4-.26,.64-.36s.49-.2,.75-.28,.53-.14,.81-.18,.55-.07,.81-.07c1,0,1.76,.28,2.27,.84s.77,1.4,.77,2.51v5.85h-1.12Zm-2.32-4.37c-.4,.06-.75,.13-1.04,.22s-.52,.21-.71,.36-.33,.33-.41,.55-.13,.49-.13,.81c0,.24,.04,.46,.13,.67s.21,.38,.37,.53,.36,.27,.59,.35,.49,.12,.79,.12c.4,0,.76-.08,1.1-.23s.62-.36,.87-.63,.43-.59,.57-.97,.21-.78,.21-1.22v-.89l-2.32,.33Z"/><path class="cls-2" d="M56.26,81.12c-.26-.19-.6-.29-1.02-.29-.3,0-.56,.06-.79,.17s-.43,.27-.6,.46-.32,.42-.44,.67-.22,.52-.29,.8-.13,.55-.16,.83-.05,.55-.05,.8v4.4h-1.12v-9h1.12v1.92h.04c.11-.33,.24-.62,.4-.88s.35-.48,.56-.66,.44-.31,.69-.41,.51-.14,.79-.14c.18,0,.34,.01,.49,.04s.27,.06,.39,.11v1.18Z"/><path class="cls-2" d="M62.28,88.86c-.39,.19-.81,.29-1.27,.29-1.45,0-2.18-.84-2.18-2.51v-5.69h-1.58v-.98h1.58v-2.27l1.12-.37v2.64h2.32v.98h-2.32v5.51c0,.61,.1,1.05,.3,1.32s.54,.4,1.01,.4c.35,0,.69-.11,1.01-.32v.99Z"/><path class="cls-2" d="M70.21,88.97v-5.19c0-2.03-.74-3.05-2.21-3.05-.39,0-.76,.08-1.09,.23s-.62,.37-.87,.65-.43,.6-.57,.98-.21,.79-.21,1.23v5.15h-1.12v-9h1.12v1.56h.04c.67-1.18,1.67-1.78,3.01-1.78,.98,0,1.73,.32,2.25,.96s.77,1.56,.77,2.77v5.48h-1.12Z"/><path class="cls-2" d="M74.58,84.67c0,.55,.08,1.05,.22,1.49s.34,.81,.61,1.12,.58,.54,.96,.7,.8,.24,1.28,.24c1.01,0,1.97-.35,2.87-1.06v1.11c-.86,.62-1.9,.92-3.13,.92-.6,0-1.15-.11-1.64-.32s-.91-.52-1.26-.92-.61-.9-.8-1.48-.28-1.25-.28-2c0-.67,.1-1.3,.31-1.87s.49-1.07,.85-1.49,.79-.75,1.29-.98,1.04-.36,1.63-.36,1.09,.1,1.54,.3,.82,.49,1.12,.87,.53,.83,.69,1.37,.24,1.14,.24,1.81v.56h-6.5Zm5.34-.98c-.02-.94-.24-1.66-.67-2.18s-1.02-.77-1.78-.77c-.38,0-.73,.07-1.06,.2s-.61,.33-.86,.58-.45,.57-.61,.93-.27,.78-.34,1.23h5.32Z"/><path class="cls-2" d="M87.75,81.12c-.26-.19-.6-.29-1.02-.29-.3,0-.56,.06-.79,.17s-.43,.27-.6,.46-.32,.42-.44,.67-.22,.52-.29,.8-.13,.55-.16,.83-.05,.55-.05,.8v4.4h-1.12v-9h1.12v1.92h.04c.11-.33,.24-.62,.4-.88s.35-.48,.56-.66,.44-.31,.69-.41,.51-.14,.79-.14c.18,0,.34,.01,.49,.04s.27,.06,.39,.11v1.18Z"/><path class="cls-2" d="M94.87,77.69c-.22,0-.4-.08-.56-.23s-.24-.35-.24-.58,.08-.42,.24-.57,.35-.22,.56-.22c.11,0,.22,.02,.32,.06s.19,.09,.26,.16,.13,.15,.18,.25,.07,.2,.07,.32-.02,.22-.06,.32-.1,.19-.18,.26-.16,.13-.26,.17-.2,.06-.32,.06Zm-.55,11.28v-9h1.12v9h-1.12Z"/><path class="cls-2" d="M109.58,88.97v-1.58h-.04c-.3,.57-.73,1.01-1.28,1.32s-1.18,.47-1.89,.47c-.56,0-1.07-.1-1.53-.31s-.85-.51-1.18-.9-.58-.87-.76-1.42-.27-1.19-.27-1.89,.1-1.39,.29-1.99,.47-1.12,.83-1.55,.79-.76,1.3-1,1.07-.36,1.69-.36c1.29,0,2.22,.52,2.79,1.56h.04v-5.67h1.12v13.32h-1.12Zm0-5.43c0-.39-.07-.76-.2-1.1s-.32-.64-.56-.89-.53-.45-.87-.6-.71-.22-1.11-.22c-.45,0-.86,.09-1.23,.26s-.7,.43-.96,.76-.47,.73-.62,1.21-.22,1.01-.22,1.62c0,.57,.07,1.08,.2,1.53s.33,.83,.58,1.14,.55,.55,.89,.71,.73,.25,1.15,.25c.46,0,.87-.08,1.23-.25s.68-.39,.93-.68,.45-.62,.59-1.01,.21-.8,.21-1.24v-1.5Z"/><path class="cls-2" d="M114.14,84.67c0,.55,.08,1.05,.22,1.49s.34,.81,.61,1.12,.58,.54,.96,.7,.8,.24,1.28,.24c1.01,0,1.97-.35,2.87-1.06v1.11c-.86,.62-1.9,.92-3.13,.92-.6,0-1.15-.11-1.64-.32s-.91-.52-1.26-.92-.61-.9-.8-1.48-.28-1.25-.28-2c0-.67,.1-1.3,.31-1.87s.49-1.07,.85-1.49,.79-.75,1.29-.98,1.04-.36,1.63-.36,1.09,.1,1.54,.3,.82,.49,1.12,.87,.53,.83,.69,1.37,.24,1.14,.24,1.81v.56h-6.5Zm5.34-.98c-.02-.94-.24-1.66-.67-2.18s-1.02-.77-1.78-.77c-.38,0-.73,.07-1.06,.2s-.61,.33-.86,.58-.45,.57-.61,.93-.27,.78-.34,1.23h5.32Z"/><path class="cls-2" d="M128.93,88.97v-5.19c0-2.03-.74-3.05-2.21-3.05-.39,0-.76,.08-1.09,.23s-.62,.37-.87,.65-.43,.6-.57,.98-.21,.79-.21,1.23v5.15h-1.12v-9h1.12v1.56h.04c.67-1.18,1.67-1.78,3.01-1.78,.98,0,1.73,.32,2.25,.96s.77,1.56,.77,2.77v5.48h-1.12Z"/><path class="cls-2" d="M144,88.97v-1.58h-.04c-.3,.57-.73,1.01-1.28,1.32s-1.18,.47-1.89,.47c-.56,0-1.07-.1-1.53-.31s-.85-.51-1.18-.9-.58-.87-.76-1.42-.27-1.19-.27-1.89,.1-1.39,.29-1.99,.47-1.12,.83-1.55,.79-.76,1.3-1,1.07-.36,1.69-.36c1.29,0,2.22,.52,2.79,1.56h.04v-5.67h1.12v13.32h-1.12Zm0-5.43c0-.39-.07-.76-.2-1.1s-.32-.64-.56-.89-.53-.45-.87-.6-.71-.22-1.11-.22c-.45,0-.86,.09-1.23,.26s-.7,.43-.96,.76-.47,.73-.62,1.21-.22,1.01-.22,1.62c0,.57,.07,1.08,.2,1.53s.33,.83,.58,1.14,.55,.55,.89,.71,.73,.25,1.15,.25c.46,0,.87-.08,1.23-.25s.68-.39,.93-.68,.45-.62,.59-1.01,.21-.8,.21-1.24v-1.5Z"/><path class="cls-2" d="M148.58,77.69c-.22,0-.4-.08-.56-.23s-.24-.35-.24-.58,.08-.42,.24-.57,.35-.22,.56-.22c.11,0,.22,.02,.32,.06s.19,.09,.26,.16,.13,.15,.18,.25,.07,.2,.07,.32-.02,.22-.06,.32-.1,.19-.18,.26-.16,.13-.26,.17-.2,.06-.32,.06Zm-.55,11.28v-9h1.12v9h-1.12Z"/><path class="cls-2" d="M159.49,88.27c0,1.67-.38,2.91-1.14,3.71s-1.93,1.21-3.51,1.21c-.98,0-1.92-.22-2.79-.66v-1.14c.98,.54,1.91,.82,2.79,.82,2.35,0,3.52-1.24,3.52-3.73v-1.08h-.04c-.69,1.18-1.75,1.78-3.16,1.78-.56,0-1.06-.1-1.52-.31s-.85-.5-1.18-.89-.58-.86-.76-1.41-.27-1.18-.27-1.88c0-.74,.1-1.41,.29-2.02s.47-1.13,.83-1.56,.79-.77,1.3-1.01,1.08-.36,1.71-.36c1.27,0,2.2,.52,2.79,1.55h.04v-1.34h1.12v8.31Zm-1.12-4.77c0-.38-.07-.73-.2-1.06s-.32-.63-.56-.88-.53-.45-.86-.6-.7-.22-1.09-.22c-.47,0-.89,.09-1.27,.27s-.7,.44-.97,.77-.47,.74-.62,1.22-.22,1.02-.22,1.61c0,.55,.07,1.05,.2,1.49s.33,.82,.57,1.13,.54,.55,.89,.72,.74,.25,1.16,.25,.85-.08,1.21-.24,.67-.38,.93-.67,.46-.62,.6-1,.21-.8,.21-1.24v-1.56Z"/><path class="cls-2" d="M162.94,77.69c-.22,0-.4-.08-.56-.23s-.24-.35-.24-.58,.08-.42,.24-.57,.35-.22,.56-.22c.11,0,.22,.02,.32,.06s.19,.09,.26,.16,.13,.15,.18,.25,.07,.2,.07,.32-.02,.22-.06,.32-.1,.19-.18,.26-.16,.13-.26,.17-.2,.06-.32,.06Zm-.55,11.28v-9h1.12v9h-1.12Z"/><path class="cls-2" d="M170.28,88.86c-.39,.19-.81,.29-1.27,.29-1.45,0-2.18-.84-2.18-2.51v-5.69h-1.58v-.98h1.58v-2.27l1.12-.37v2.64h2.32v.98h-2.32v5.51c0,.61,.1,1.05,.3,1.32s.54,.4,1.01,.4c.35,0,.69-.11,1.01-.32v.99Z"/><path class="cls-2" d="M177.32,88.97v-1.6h-.04c-.29,.57-.69,1.02-1.2,1.34s-1.08,.47-1.72,.47c-.43,0-.82-.06-1.17-.18s-.64-.3-.89-.52-.43-.5-.56-.81-.2-.67-.2-1.05c0-.81,.25-1.46,.76-1.95s1.27-.8,2.29-.94l2.73-.4c0-1.73-.67-2.59-2.01-2.59-1.05,0-2.02,.38-2.92,1.15v-1.23c.19-.13,.4-.26,.64-.36s.49-.2,.75-.28,.53-.14,.81-.18,.55-.07,.81-.07c1,0,1.76,.28,2.27,.84s.77,1.4,.77,2.51v5.85h-1.12Zm-2.32-4.37c-.4,.06-.75,.13-1.04,.22s-.52,.21-.71,.36-.33,.33-.41,.55-.13,.49-.13,.81c0,.24,.04,.46,.13,.67s.21,.38,.37,.53,.36,.27,.59,.35,.49,.12,.79,.12c.4,0,.76-.08,1.1-.23s.62-.36,.87-.63,.43-.59,.57-.97,.21-.78,.21-1.22v-.89l-2.32,.33Z"/><path class="cls-2" d="M181.15,88.97v-13.32h1.12v13.32h-1.12Z"/><path class="cls-2" d="M190.36,88.97v-1.6h-.04c-.29,.57-.69,1.02-1.2,1.34s-1.08,.47-1.72,.47c-.43,0-.82-.06-1.17-.18s-.64-.3-.89-.52-.43-.5-.56-.81-.2-.67-.2-1.05c0-.81,.25-1.46,.76-1.95s1.27-.8,2.29-.94l2.73-.4c0-1.73-.67-2.59-2.01-2.59-1.05,0-2.02,.38-2.92,1.15v-1.23c.19-.13,.4-.26,.64-.36s.49-.2,.75-.28,.53-.14,.81-.18,.55-.07,.81-.07c1,0,1.76,.28,2.27,.84s.77,1.4,.77,2.51v5.85h-1.12Zm-2.32-4.37c-.4,.06-.75,.13-1.04,.22s-.52,.21-.71,.36-.33,.33-.41,.55-.13,.49-.13,.81c0,.24,.04,.46,.13,.67s.21,.38,.37,.53,.36,.27,.59,.35,.49,.12,.79,.12c.4,0,.76-.08,1.1-.23s.62-.36,.87-.63,.43-.59,.57-.97,.21-.78,.21-1.22v-.89l-2.32,.33Z"/><path class="cls-2" d="M202.99,88.86c-.39,.19-.81,.29-1.27,.29-1.45,0-2.18-.84-2.18-2.51v-5.69h-1.58v-.98h1.58v-2.27l1.12-.37v2.64h2.32v.98h-2.32v5.51c0,.61,.1,1.05,.3,1.32s.54,.4,1.01,.4c.35,0,.69-.11,1.01-.32v.99Z"/><path class="cls-2" d="M209.31,81.12c-.26-.19-.6-.29-1.02-.29-.3,0-.56,.06-.79,.17s-.43,.27-.6,.46-.32,.42-.44,.67-.22,.52-.29,.8-.13,.55-.16,.83-.05,.55-.05,.8v4.4h-1.12v-9h1.12v1.92h.04c.11-.33,.24-.62,.4-.88s.35-.48,.56-.66,.44-.31,.69-.41,.51-.14,.79-.14c.18,0,.34,.01,.49,.04s.27,.06,.39,.11v1.18Z"/><path class="cls-2" d="M216.13,88.97v-1.6h-.04c-.29,.57-.69,1.02-1.2,1.34s-1.08,.47-1.72,.47c-.43,0-.82-.06-1.17-.18s-.64-.3-.89-.52-.43-.5-.56-.81-.2-.67-.2-1.05c0-.81,.25-1.46,.76-1.95s1.27-.8,2.29-.94l2.73-.4c0-1.73-.67-2.59-2.01-2.59-1.05,0-2.02,.38-2.92,1.15v-1.23c.19-.13,.4-.26,.64-.36s.49-.2,.75-.28,.53-.14,.81-.18,.55-.07,.81-.07c1,0,1.76,.28,2.27,.84s.77,1.4,.77,2.51v5.85h-1.12Zm-2.32-4.37c-.4,.06-.75,.13-1.04,.22s-.52,.21-.71,.36-.33,.33-.41,.55-.13,.49-.13,.81c0,.24,.04,.46,.13,.67s.21,.38,.37,.53,.36,.27,.59,.35,.49,.12,.79,.12c.4,0,.76-.08,1.1-.23s.62-.36,.87-.63,.43-.59,.57-.97,.21-.78,.21-1.22v-.89l-2.32,.33Z"/><path class="cls-2" d="M226.04,88.97v-5.19c0-2.03-.74-3.05-2.21-3.05-.39,0-.76,.08-1.09,.23s-.62,.37-.87,.65-.43,.6-.57,.98-.21,.79-.21,1.23v5.15h-1.12v-9h1.12v1.56h.04c.67-1.18,1.67-1.78,3.01-1.78,.98,0,1.73,.32,2.25,.96s.77,1.56,.77,2.77v5.48h-1.12Z"/><path class="cls-2" d="M229.36,87.35c.17,.13,.35,.25,.55,.36s.4,.2,.62,.27,.42,.13,.64,.17,.42,.06,.61,.06c1.34,0,2-.5,2-1.5,0-.23-.05-.43-.14-.59s-.23-.32-.4-.46-.39-.27-.63-.38-.52-.24-.83-.37c-.42-.17-.77-.34-1.07-.52s-.54-.37-.74-.58-.34-.44-.43-.69-.14-.53-.14-.85c0-.4,.09-.75,.26-1.06s.41-.57,.7-.79,.63-.38,1.02-.5,.79-.17,1.21-.17c.78,0,1.46,.15,2.04,.44v1.19c-.67-.43-1.4-.65-2.18-.65-.28,0-.54,.04-.77,.11s-.43,.17-.59,.3-.29,.28-.38,.46-.14,.38-.14,.59,.04,.42,.11,.58,.18,.32,.33,.45,.34,.26,.58,.39,.53,.25,.87,.4c.43,.18,.81,.35,1.12,.52s.58,.36,.78,.56,.36,.43,.46,.68,.15,.54,.15,.87c0,.4-.08,.76-.25,1.08s-.4,.58-.69,.8-.64,.38-1.04,.49-.83,.17-1.3,.17c-.91,0-1.67-.19-2.29-.57v-1.26Z"/><path class="cls-2" d="M241.37,76.71c-.25-.16-.58-.25-.98-.25-1.05,0-1.58,.69-1.58,2.07v1.44h2.24v.98h-2.24v8.02h-1.12v-8.02h-1.57v-.98h1.57v-1.51c0-.45,.06-.86,.17-1.23s.28-.68,.51-.94,.5-.46,.84-.6,.73-.21,1.16-.21,.76,.06,1,.17v1.06Z"/><path class="cls-2" d="M246.16,89.18c-.67,0-1.27-.11-1.8-.33s-.98-.54-1.36-.94-.66-.9-.86-1.46-.3-1.2-.3-1.89c0-.75,.11-1.42,.32-2.01s.51-1.09,.9-1.51,.86-.73,1.41-.94,1.17-.33,1.85-.33,1.24,.11,1.76,.32,.96,.52,1.33,.93,.64,.9,.83,1.48,.29,1.24,.29,1.98-.1,1.34-.3,1.92-.49,1.07-.87,1.49-.83,.74-1.37,.97-1.15,.34-1.83,.34Zm.09-8.45c-.49,0-.94,.08-1.34,.25s-.74,.42-1.02,.74-.5,.72-.65,1.2-.23,1.01-.23,1.6c0,.56,.08,1.07,.23,1.52s.37,.84,.65,1.16,.62,.57,1.02,.74,.84,.26,1.34,.26,.95-.08,1.34-.25,.71-.41,.98-.73,.47-.71,.61-1.17,.21-.99,.21-1.58c0-1.21-.27-2.14-.81-2.78s-1.31-.96-2.31-.96Z"/><path class="cls-2" d="M257.26,81.12c-.26-.19-.6-.29-1.02-.29-.3,0-.56,.06-.79,.17s-.43,.27-.6,.46-.32,.42-.44,.67-.22,.52-.29,.8-.13,.55-.16,.83-.05,.55-.05,.8v4.4h-1.12v-9h1.12v1.92h.04c.11-.33,.24-.62,.4-.88s.35-.48,.56-.66,.44-.31,.69-.41,.51-.14,.79-.14c.18,0,.34,.01,.49,.04s.27,.06,.39,.11v1.18Z"/><path class="cls-2" d="M270.18,88.97v-5.29c0-.54-.04-.99-.12-1.37s-.21-.68-.38-.91-.39-.4-.66-.51-.58-.16-.95-.16c-.33,0-.64,.08-.93,.23s-.55,.37-.77,.64-.39,.59-.52,.96-.19,.77-.19,1.2v5.2h-1.12v-5.41c0-1.89-.72-2.83-2.17-2.83-.33,0-.64,.07-.93,.22s-.54,.36-.75,.63-.38,.59-.5,.97-.18,.8-.18,1.25v5.16h-1.12v-9h1.12v1.46h.04c.63-1.11,1.56-1.67,2.77-1.67,.32,0,.62,.05,.9,.15s.53,.23,.76,.4,.41,.38,.58,.62,.28,.5,.36,.79c.32-.64,.73-1.12,1.23-1.46s1.08-.5,1.72-.5c1.97,0,2.96,1.22,2.96,3.66v5.55h-1.12Z"/><path class="cls-2" d="M279.19,88.97v-1.6h-.04c-.29,.57-.69,1.02-1.2,1.34s-1.08,.47-1.72,.47c-.43,0-.82-.06-1.17-.18s-.64-.3-.89-.52-.43-.5-.56-.81-.2-.67-.2-1.05c0-.81,.25-1.46,.76-1.95s1.27-.8,2.29-.94l2.73-.4c0-1.73-.67-2.59-2.01-2.59-1.05,0-2.02,.38-2.92,1.15v-1.23c.19-.13,.4-.26,.64-.36s.49-.2,.75-.28,.53-.14,.81-.18,.55-.07,.81-.07c1,0,1.76,.28,2.27,.84s.77,1.4,.77,2.51v5.85h-1.12Zm-2.32-4.37c-.4,.06-.75,.13-1.04,.22s-.52,.21-.71,.36-.33,.33-.41,.55-.13,.49-.13,.81c0,.24,.04,.46,.13,.67s.21,.38,.37,.53,.36,.27,.59,.35,.49,.12,.79,.12c.4,0,.76-.08,1.1-.23s.62-.36,.87-.63,.43-.59,.57-.97,.21-.78,.21-1.22v-.89l-2.32,.33Z"/><path class="cls-2" d="M286.89,88.86c-.39,.19-.81,.29-1.27,.29-1.45,0-2.18-.84-2.18-2.51v-5.69h-1.58v-.98h1.58v-2.27l1.12-.37v2.64h2.32v.98h-2.32v5.51c0,.61,.1,1.05,.3,1.32s.54,.4,1.01,.4c.35,0,.69-.11,1.01-.32v.99Z"/><path class="cls-2" d="M289.3,77.69c-.22,0-.4-.08-.56-.23s-.24-.35-.24-.58,.08-.42,.24-.57,.35-.22,.56-.22c.11,0,.22,.02,.32,.06s.19,.09,.26,.16,.13,.15,.18,.25,.07,.2,.07,.32-.02,.22-.06,.32-.1,.19-.18,.26-.16,.13-.26,.17-.2,.06-.32,.06Zm-.55,11.28v-9h1.12v9h-1.12Z"/><path class="cls-2" d="M296.46,89.18c-.67,0-1.27-.11-1.8-.33s-.98-.54-1.36-.94-.66-.9-.86-1.46-.3-1.2-.3-1.89c0-.75,.11-1.42,.32-2.01s.51-1.09,.9-1.51,.86-.73,1.41-.94,1.17-.33,1.85-.33,1.24,.11,1.76,.32,.96,.52,1.33,.93,.64,.9,.83,1.48,.29,1.24,.29,1.98-.1,1.34-.3,1.92-.49,1.07-.87,1.49-.83,.74-1.37,.97-1.15,.34-1.83,.34Zm.09-8.45c-.49,0-.94,.08-1.34,.25s-.74,.42-1.02,.74-.5,.72-.65,1.2-.23,1.01-.23,1.6c0,.56,.08,1.07,.23,1.52s.37,.84,.65,1.16,.62,.57,1.02,.74,.84,.26,1.34,.26,.95-.08,1.34-.25,.71-.41,.98-.73,.47-.71,.61-1.17,.21-.99,.21-1.58c0-1.21-.27-2.14-.81-2.78s-1.31-.96-2.31-.96Z"/><path class="cls-2" d="M309.16,88.97v-5.19c0-2.03-.74-3.05-2.21-3.05-.39,0-.76,.08-1.09,.23s-.62,.37-.87,.65-.43,.6-.57,.98-.21,.79-.21,1.23v5.15h-1.12v-9h1.12v1.56h.04c.67-1.18,1.67-1.78,3.01-1.78,.98,0,1.73,.32,2.25,.96s.77,1.56,.77,2.77v5.48h-1.12Z"/><path class="cls-2" d="M313.53,84.67c0,.55,.08,1.05,.22,1.49s.34,.81,.61,1.12,.58,.54,.96,.7,.8,.24,1.28,.24c1.01,0,1.97-.35,2.87-1.06v1.11c-.86,.62-1.9,.92-3.13,.92-.6,0-1.15-.11-1.64-.32s-.91-.52-1.26-.92-.61-.9-.8-1.48-.28-1.25-.28-2c0-.67,.1-1.3,.31-1.87s.49-1.07,.85-1.49,.79-.75,1.29-.98,1.04-.36,1.63-.36,1.09,.1,1.54,.3,.82,.49,1.12,.87,.53,.83,.69,1.37,.24,1.14,.24,1.81v.56h-6.5Zm5.34-.98c-.02-.94-.24-1.66-.67-2.18s-1.02-.77-1.78-.77c-.38,0-.73,.07-1.06,.2s-.61,.33-.86,.58-.45,.57-.61,.93-.27,.78-.34,1.23h5.32Z"/><path class="cls-2" d="M328.32,88.97v-5.19c0-2.03-.74-3.05-2.21-3.05-.39,0-.76,.08-1.09,.23s-.62,.37-.87,.65-.43,.6-.57,.98-.21,.79-.21,1.23v5.15h-1.12v-9h1.12v1.56h.04c.67-1.18,1.67-1.78,3.01-1.78,.98,0,1.73,.32,2.25,.96s.77,1.56,.77,2.77v5.48h-1.12Z"/></g><line class="cls-1" y1="64.89" x2="318.1" y2="64.89"/></g></g></svg>