<?xml version="1.0" encoding="utf-8"?>
<!-- Generator: Adobe Illustrator 26.3.1, SVG Export Plug-In . SVG Version: 6.00 Build 0)  -->
<svg version="1.1" id="Lager_1" xmlns="http://www.w3.org/2000/svg" xmlns:xlink="http://www.w3.org/1999/xlink" x="0px" y="0px"
	 viewBox="0 0 489.9 148.8" style="enable-background:new 0 0 489.9 148.8;" xml:space="preserve">
<style type="text/css">
	.st0{fill:none;stroke:#000000;stroke-miterlimit:10;}
	.st1{fill:none;stroke:url(#SVGID_1_);stroke-width:8.794;stroke-linecap:round;stroke-miterlimit:11.2326;}
	.st2{fill:url(#SVGID_00000072969394909384214480000002626448358923651751_);}
</style>
<g>
	<g>
		<path d="M166.2,75.2l0.7-10.8l0.9-22.3l0.3-10.3c-5.7,0-10.8,0.1-15.1,0.3c0.1-1.9,0.2-3.5,0.2-5c6,0,12.4,0,19.3,0l11.2,0h6
			c-0.2,2.1-0.2,3.7-0.2,5c-3.6-0.2-7.7-0.3-12.1-0.3h-2.9l-0.7,15.6l-0.7,21.9v5.9l-3.4-0.1C169.5,75.1,168.3,75.1,166.2,75.2z"/>
		<path d="M222.4,69.6c-0.3,1.3-0.6,2.9-0.8,4.9c-2.2,0.6-4.2,0.9-5.9,1.1c-1.7,0.2-3.3,0.3-4.9,0.3c-2.9,0-5.6-0.4-7.9-1.1
			c-2.3-0.7-4.3-1.9-6-3.7c-1.7-1.7-2.9-3.7-3.6-6c-0.7-2.2-1.1-4.6-1.1-7.1c0-3.5,0.7-6.7,2-9.7s3.3-5.3,6-7
			c2.7-1.7,6.1-2.6,10.2-2.6c2.1,0,4.2,0.3,6.1,0.9c1.9,0.6,3.6,1.6,4.9,2.8c1.3,1.3,2.3,2.8,3,4.7s1.1,3.9,1.1,6.1
			c0,0.8-0.1,1.7-0.2,2.5h-26.8c-0.1,1.3-0.1,2.3-0.1,3c0,2.5,0.5,4.7,1.5,6.8c1,2.1,2.6,3.6,4.6,4.7c2,1.1,4.3,1.6,7,1.6
			C214.4,71.8,218,71.1,222.4,69.6z M198.7,52.9h21c0-1.5-0.1-2.6-0.3-3.4c-0.2-0.8-0.5-1.7-0.9-2.5c-0.4-0.9-1-1.6-1.8-2.3
			c-0.8-0.6-1.7-1.1-2.7-1.5c-1.1-0.3-2.2-0.5-3.5-0.5c-1.3,0-2.6,0.2-3.8,0.6c-1.2,0.4-2.3,0.9-3.2,1.5c-0.9,0.7-1.7,1.4-2.4,2.3
			c-0.6,0.9-1.1,1.7-1.4,2.5C199.3,50.4,199,51.5,198.7,52.9z"/>
		<path d="M257.6,69.8c0,0.4-0.2,1.1-0.4,2.1c-0.2,1-0.4,2-0.5,3c-1.7,0.4-3.4,0.7-4.9,0.8s-3,0.2-4.2,0.2c-2.5,0-4.9-0.3-7-1
			s-4-1.8-5.6-3.4c-1.6-1.6-2.8-3.5-3.5-5.8c-0.8-2.3-1.1-4.7-1.1-7.3c0-3.4,0.6-6.7,1.8-9.8c1.2-3.1,3.1-5.5,5.8-7.3
			c2.6-1.8,6.2-2.6,10.7-2.6c3.3,0,6.6,0.4,9.7,1.3c0.1,2,0.3,3.6,0.4,4.9c-2.2-0.7-4-1.2-5.4-1.4s-2.7-0.4-3.9-0.4
			c-2.1,0-3.9,0.4-5.5,1.1c-1.6,0.8-3,1.8-4.2,3.2c-1.1,1.4-2,3-2.5,4.9c-0.5,1.9-0.8,3.8-0.8,5.8c0,2.6,0.4,5,1.2,7
			c0.8,2,2.3,3.5,4.3,4.6c2.1,1.1,4.4,1.6,6.9,1.6C251.5,71.5,254.4,70.9,257.6,69.8z"/>
		<path d="M265.6,75.2l0.9-15.3l0.8-20.8l0.2-11.8l3.2,0c0.8,0,1.8,0,3.1,0l-0.8,12.2l-0.3,7.3c0.6-1,1-1.8,1.5-2.4
			c0.4-0.6,0.9-1.2,1.6-1.8c0.6-0.6,1.3-1.1,2-1.5c0.7-0.4,1.5-0.8,2.4-1.1c0.9-0.3,1.9-0.6,3.1-0.8s2.5-0.3,3.8-0.3
			c2,0,3.9,0.2,5.7,0.7s3.4,1.2,4.7,2.2c1.3,1,2.2,2.3,2.7,3.7c0.5,1.4,0.7,2.9,0.7,4.4c0,0.6,0,1.4,0,2.3c-0.1,1.5-0.2,3.1-0.3,5.1
			L300.1,70c-0.1,1.4-0.1,3.1-0.1,5.2c-1.4,0-2.4-0.1-3.1-0.1c-0.8,0-1.9,0-3.3,0.1c0.3-2.5,0.6-6.5,0.9-11.9s0.5-9.2,0.5-11.3
			c0-1.9-0.3-3.4-1-4.7c-0.7-1.2-1.8-2.2-3.4-2.8c-1.6-0.7-3.3-1-5.2-1c-1.8,0-3.4,0.3-4.9,0.8c-1.4,0.5-2.6,1.2-3.5,2.1
			c-1,0.9-1.8,2-2.3,3.3c-0.6,1.4-1.1,2.8-1.3,4.2c-0.4,2.2-0.7,5.3-0.8,9.3c-0.1,2.4-0.2,6.4-0.4,12.1c-1.3,0-2.3-0.1-3-0.1
			C268.3,75.1,267.2,75.1,265.6,75.2z"/>
		<path d="M308,73.9c-0.1-2.2-0.2-4.2-0.5-5.8c2.5,1.2,4.7,2,6.7,2.5c2,0.5,3.9,0.7,5.7,0.7c1.8,0,3.4-0.3,4.9-0.9s2.6-1.4,3.4-2.5
			c0.8-1.1,1.1-2.3,1.1-3.7c0-0.8-0.1-1.6-0.4-2.3c-0.3-0.7-0.7-1.4-1.2-2.2c-0.6-0.7-1.6-1.7-3-3c-1.4-1.3-3.4-3-6-5.2l-2.6-2.2
			c-1-0.8-1.9-1.7-2.7-2.5c-0.8-0.8-1.5-1.6-2-2.4c-0.5-0.8-1-1.5-1.2-2.1c-0.3-0.6-0.5-1.3-0.7-2.1c-0.2-0.8-0.2-1.5-0.2-2.3
			c0-2,0.6-3.9,1.7-5.7c1.1-1.8,2.8-3.2,5-4.2s5.1-1.6,8.8-1.6c2.6,0,5.8,0.4,9.6,1.1c0,1.5,0.2,3.4,0.5,5.6
			c-3.6-1.3-6.8-1.9-9.8-1.9c-2,0-3.7,0.3-5.1,1c-1.4,0.7-2.4,1.5-3.1,2.6s-1.1,2.1-1.1,3.2c0,0.7,0.1,1.3,0.3,1.9
			c0.2,0.6,0.5,1.2,0.8,1.8c0.5,0.8,1.2,1.6,2,2.5c0.8,0.8,1.9,1.8,3.3,3c0.4,0.3,1.7,1.4,4,3.3c2.3,1.9,4,3.4,5.1,4.5
			c1.1,1.1,1.9,2,2.5,2.9c0.6,0.9,1.1,1.9,1.5,2.9c0.4,1,0.5,2.2,0.5,3.4c0,1.9-0.4,3.6-1.2,5.2s-2,2.9-3.5,3.9
			c-1.5,1-3.2,1.7-5,2.1c-1.9,0.4-3.8,0.6-5.8,0.6c-1.6,0-3.3-0.1-5-0.4S311.2,74.8,308,73.9z"/>
		<path d="M376.9,75.2c-1.1,0-2.1-0.1-3-0.1c-0.9,0-1.9,0-2.9,0.1l0.2-6.8c-0.6,1.1-1,1.9-1.5,2.4c-0.4,0.6-0.9,1.1-1.5,1.7
			c-0.6,0.6-1.2,1-1.9,1.4c-0.6,0.4-1.4,0.7-2.3,1c-0.9,0.3-1.9,0.5-3,0.7c-1.2,0.2-2.4,0.3-3.7,0.3c-2.9,0-5.3-0.4-7.3-1.3
			s-3.6-2.1-4.6-3.7c-1-1.6-1.6-3.8-1.6-6.5c0-0.4,0-1.1,0.1-2.1c0-1,0.1-2.3,0.2-3.9l0.6-11.7l0.1-3.8c0-0.9,0-2,0-3.3l3.2,0
			c0.7,0,1.7,0,3,0c-0.3,4.1-0.6,8.6-0.9,13.5c-0.3,4.9-0.4,8-0.4,9.4c0,2.1,0.3,3.7,1,4.9c0.7,1.2,1.8,2.2,3.3,2.8s3.3,1,5.3,1
			c1.7,0,3.4-0.3,5-0.9c1.4-0.5,2.5-1.3,3.4-2.2c1-1,1.9-2.3,2.5-3.9c0.5-1.2,0.9-2.7,1.1-4.5c0.2-1.3,0.3-3.7,0.5-7.2
			c0.2-4.2,0.3-8.5,0.4-12.9l3.3,0c0.7,0,1.7,0,3,0c-0.3,4.2-0.7,10.6-1.2,19.2C377.1,63.5,377,69,376.9,75.2z"/>
		<path d="M386.3,75.2l0.4-5.1c0.1-1.1,0.2-2.8,0.3-5.1l0.8-21.4c0-1.8,0-3.1,0-4c1.1,0,2.1,0,3,0c1,0,2,0,2.9,0l-0.3,6.5
			c0.8-1.3,1.5-2.4,2.2-3.1s1.5-1.5,2.5-2.1c1.1-0.7,2.3-1.2,3.6-1.5c1.3-0.4,2.7-0.5,4.2-0.5c1,0,2,0.1,3,0.4c1,0.2,1.9,0.6,2.7,1
			s1.5,0.9,2.1,1.4c0.6,0.5,1.1,1.1,1.4,1.8c0.4,0.6,0.7,1.5,1.1,2.7c1.4-2.7,3.2-4.6,5.4-5.7c2.1-1.1,4.5-1.6,7.2-1.6
			c1.7,0,3.3,0.3,4.9,0.8c1.6,0.5,2.8,1.3,3.8,2.3c0.9,1,1.6,2.1,1.9,3.1s0.5,2.2,0.5,3.3c0,1.1-0.1,2.8-0.2,5.1s-0.3,5.7-0.6,10.3
			c-0.2,4.6-0.3,8.4-0.3,11.5c-1.2,0-2.2-0.1-2.9-0.1c-0.8,0-1.9,0-3.3,0.1c0.3-3.2,0.5-6.6,0.7-10.3l0.5-8.7
			c0.1-2.1,0.2-3.9,0.2-5.4c0-1.4-0.1-2.4-0.4-3.2c-0.3-0.8-0.7-1.5-1.4-2.1c-0.6-0.6-1.4-1.1-2.3-1.4c-0.9-0.3-2-0.5-3.1-0.5
			c-0.9,0-1.8,0.1-2.6,0.3c-0.8,0.2-1.5,0.5-2.2,1c-0.8,0.4-1.5,1-2.1,1.7c-0.6,0.6-1.1,1.4-1.5,2.2c-0.4,0.8-0.8,1.8-1.1,2.9
			c-0.4,1.4-0.6,3.1-0.7,5.2c-0.2,2.2-0.3,5.1-0.4,8.6l-0.3,9.8c-1.4,0-2.4-0.1-3.1-0.1c-0.6,0-1.7,0-3.2,0.1c0.2-2.9,0.4-5.9,0.6-9
			l0.4-8.5c0.1-2.6,0.2-4.9,0.2-6.7c0-1.2-0.1-2.2-0.4-3c-0.2-0.8-0.7-1.6-1.3-2.3c-0.6-0.7-1.4-1.2-2.3-1.6c-0.9-0.4-1.9-0.5-3-0.5
			c-1.2,0-2.3,0.2-3.3,0.6c-1.1,0.4-2,1-2.9,1.8c-0.9,0.8-1.6,1.8-2.2,2.9c-0.6,1.2-1.1,2.7-1.4,4.6c-0.3,1.9-0.6,5.2-0.8,9.9
			c-0.2,4.7-0.3,8.6-0.3,11.8c-1.5,0-2.5-0.1-3.1-0.1C388.9,75.1,387.8,75.1,386.3,75.2z"/>
	</g>
	<g>
		<path d="M154.7,115.4v-12.6h3.3c2.2,0,3.8,0.5,4.9,1.6s1.7,2.6,1.7,4.6c0,1-0.2,1.9-0.5,2.7s-0.8,1.5-1.3,2s-1.3,1-2.1,1.3
			s-1.8,0.5-2.8,0.5H154.7z M155.9,103.9v10.5h1.9c0.9,0,1.6-0.1,2.3-0.4s1.3-0.6,1.7-1s0.8-1,1.1-1.7s0.4-1.4,0.4-2.3
			c0-3.4-1.8-5.1-5.4-5.1H155.9z"/>
		<path d="M167.5,104.1c-0.2,0-0.4-0.1-0.6-0.2s-0.2-0.3-0.2-0.6c0-0.2,0.1-0.4,0.2-0.6s0.3-0.2,0.6-0.2c0.1,0,0.2,0,0.3,0.1
			s0.2,0.1,0.3,0.2s0.1,0.2,0.2,0.3s0.1,0.2,0.1,0.3c0,0.1,0,0.2-0.1,0.3s-0.1,0.2-0.2,0.3s-0.2,0.1-0.3,0.2
			S167.6,104.1,167.5,104.1z M166.9,115.4v-9h1.1v9H166.9z"/>
		<path d="M177,115.4v-5.2c0-2-0.7-3-2.2-3c-0.4,0-0.8,0.1-1.1,0.2s-0.6,0.4-0.9,0.6s-0.4,0.6-0.6,1s-0.2,0.8-0.2,1.2v5.2h-1.1v-9
			h1.1v1.6h0c0.7-1.2,1.7-1.8,3-1.8c1,0,1.7,0.3,2.2,1s0.8,1.6,0.8,2.8v5.5H177z"/>
		<path d="M186.9,113.9v5.6h-1.1v-13.1h1.1v1.7h0c0.3-0.6,0.8-1.1,1.3-1.4s1.2-0.5,1.9-0.5c0.6,0,1.1,0.1,1.5,0.3s0.8,0.5,1.2,0.9
			s0.6,0.8,0.7,1.4s0.3,1.2,0.3,1.8c0,0.7-0.1,1.4-0.3,2s-0.5,1.1-0.8,1.6s-0.8,0.8-1.3,1s-1.1,0.4-1.7,0.4
			C188.5,115.6,187.6,115,186.9,113.9L186.9,113.9z M186.9,111.6c0,0.4,0.1,0.8,0.2,1.2s0.3,0.7,0.6,0.9s0.5,0.5,0.9,0.6
			s0.7,0.2,1.2,0.2c0.5,0,0.9-0.1,1.2-0.3s0.7-0.5,0.9-0.8s0.5-0.8,0.6-1.3s0.2-1.1,0.2-1.7c0-0.5-0.1-1-0.2-1.4s-0.3-0.8-0.5-1.1
			s-0.5-0.5-0.9-0.7s-0.7-0.2-1.1-0.2c-0.5,0-0.9,0.1-1.3,0.3s-0.7,0.4-1,0.7s-0.5,0.6-0.6,1.1s-0.2,0.8-0.2,1.3V111.6z"/>
		<path d="M201.1,115.4v-1.6h0c-0.3,0.6-0.7,1-1.2,1.3s-1.1,0.5-1.7,0.5c-0.4,0-0.8-0.1-1.2-0.2s-0.6-0.3-0.9-0.5s-0.4-0.5-0.6-0.8
			s-0.2-0.7-0.2-1c0-0.8,0.3-1.5,0.8-1.9s1.3-0.8,2.3-0.9l2.7-0.4c0-1.7-0.7-2.6-2-2.6c-1,0-2,0.4-2.9,1.2v-1.2
			c0.2-0.1,0.4-0.3,0.6-0.4s0.5-0.2,0.8-0.3s0.5-0.1,0.8-0.2s0.5-0.1,0.8-0.1c1,0,1.8,0.3,2.3,0.8s0.8,1.4,0.8,2.5v5.9H201.1z
			 M198.7,111c-0.4,0.1-0.8,0.1-1,0.2s-0.5,0.2-0.7,0.4s-0.3,0.3-0.4,0.6s-0.1,0.5-0.1,0.8c0,0.2,0,0.5,0.1,0.7s0.2,0.4,0.4,0.5
			s0.4,0.3,0.6,0.3s0.5,0.1,0.8,0.1c0.4,0,0.8-0.1,1.1-0.2s0.6-0.4,0.9-0.6s0.4-0.6,0.6-1s0.2-0.8,0.2-1.2v-0.9L198.7,111z"/>
		<path d="M209.4,107.5c-0.3-0.2-0.6-0.3-1-0.3c-0.3,0-0.6,0.1-0.8,0.2s-0.4,0.3-0.6,0.5s-0.3,0.4-0.4,0.7s-0.2,0.5-0.3,0.8
			s-0.1,0.6-0.2,0.8s0,0.5,0,0.8v4.4h-1.1v-9h1.1v1.9h0c0.1-0.3,0.2-0.6,0.4-0.9s0.3-0.5,0.6-0.7s0.4-0.3,0.7-0.4s0.5-0.1,0.8-0.1
			c0.2,0,0.3,0,0.5,0s0.3,0.1,0.4,0.1V107.5z"/>
		<path d="M215.4,115.3c-0.4,0.2-0.8,0.3-1.3,0.3c-1.5,0-2.2-0.8-2.2-2.5v-5.7h-1.6v-1h1.6v-2.3l1.1-0.4v2.6h2.3v1h-2.3v5.5
			c0,0.6,0.1,1,0.3,1.3s0.5,0.4,1,0.4c0.4,0,0.7-0.1,1-0.3V115.3z"/>
		<path d="M223.3,115.4v-5.2c0-2-0.7-3-2.2-3c-0.4,0-0.8,0.1-1.1,0.2s-0.6,0.4-0.9,0.6s-0.4,0.6-0.6,1s-0.2,0.8-0.2,1.2v5.2h-1.1v-9
			h1.1v1.6h0c0.7-1.2,1.7-1.8,3-1.8c1,0,1.7,0.3,2.2,1s0.8,1.6,0.8,2.8v5.5H223.3z"/>
		<path d="M227.7,111.1c0,0.6,0.1,1,0.2,1.5s0.3,0.8,0.6,1.1s0.6,0.5,1,0.7s0.8,0.2,1.3,0.2c1,0,2-0.4,2.9-1.1v1.1
			c-0.9,0.6-1.9,0.9-3.1,0.9c-0.6,0-1.2-0.1-1.6-0.3s-0.9-0.5-1.3-0.9s-0.6-0.9-0.8-1.5s-0.3-1.3-0.3-2c0-0.7,0.1-1.3,0.3-1.9
			s0.5-1.1,0.9-1.5s0.8-0.7,1.3-1s1-0.4,1.6-0.4c0.6,0,1.1,0.1,1.5,0.3s0.8,0.5,1.1,0.9s0.5,0.8,0.7,1.4s0.2,1.1,0.2,1.8v0.6H227.7z
			 M233,110.1c0-0.9-0.2-1.7-0.7-2.2s-1-0.8-1.8-0.8c-0.4,0-0.7,0.1-1.1,0.2s-0.6,0.3-0.9,0.6s-0.4,0.6-0.6,0.9s-0.3,0.8-0.3,1.2
			H233z"/>
		<path d="M240.8,107.5c-0.3-0.2-0.6-0.3-1-0.3c-0.3,0-0.6,0.1-0.8,0.2s-0.4,0.3-0.6,0.5s-0.3,0.4-0.4,0.7s-0.2,0.5-0.3,0.8
			s-0.1,0.6-0.2,0.8s0,0.5,0,0.8v4.4h-1.1v-9h1.1v1.9h0c0.1-0.3,0.2-0.6,0.4-0.9s0.3-0.5,0.6-0.7s0.4-0.3,0.7-0.4s0.5-0.1,0.8-0.1
			c0.2,0,0.3,0,0.5,0s0.3,0.1,0.4,0.1V107.5z"/>
		<path d="M248,104.1c-0.2,0-0.4-0.1-0.6-0.2s-0.2-0.3-0.2-0.6c0-0.2,0.1-0.4,0.2-0.6s0.3-0.2,0.6-0.2c0.1,0,0.2,0,0.3,0.1
			s0.2,0.1,0.3,0.2s0.1,0.2,0.2,0.3s0.1,0.2,0.1,0.3c0,0.1,0,0.2-0.1,0.3s-0.1,0.2-0.2,0.3s-0.2,0.1-0.3,0.2S248.1,104.1,248,104.1z
			 M247.4,115.4v-9h1.1v9H247.4z"/>
		<path d="M262.7,115.4v-1.6h0c-0.3,0.6-0.7,1-1.3,1.3s-1.2,0.5-1.9,0.5c-0.6,0-1.1-0.1-1.5-0.3s-0.9-0.5-1.2-0.9s-0.6-0.9-0.8-1.4
			c-0.2-0.6-0.3-1.2-0.3-1.9c0-0.7,0.1-1.4,0.3-2c0.2-0.6,0.5-1.1,0.8-1.5s0.8-0.8,1.3-1s1.1-0.4,1.7-0.4c1.3,0,2.2,0.5,2.8,1.6h0
			v-5.7h1.1v13.3H262.7z M262.7,110c0-0.4-0.1-0.8-0.2-1.1s-0.3-0.6-0.6-0.9s-0.5-0.5-0.9-0.6s-0.7-0.2-1.1-0.2
			c-0.4,0-0.9,0.1-1.2,0.3s-0.7,0.4-1,0.8s-0.5,0.7-0.6,1.2s-0.2,1-0.2,1.6c0,0.6,0.1,1.1,0.2,1.5s0.3,0.8,0.6,1.1s0.5,0.5,0.9,0.7
			s0.7,0.2,1.2,0.2c0.5,0,0.9-0.1,1.2-0.2s0.7-0.4,0.9-0.7s0.5-0.6,0.6-1s0.2-0.8,0.2-1.2V110z"/>
		<path d="M267.2,111.1c0,0.6,0.1,1,0.2,1.5s0.3,0.8,0.6,1.1s0.6,0.5,1,0.7s0.8,0.2,1.3,0.2c1,0,2-0.4,2.9-1.1v1.1
			c-0.9,0.6-1.9,0.9-3.1,0.9c-0.6,0-1.2-0.1-1.6-0.3s-0.9-0.5-1.3-0.9s-0.6-0.9-0.8-1.5s-0.3-1.3-0.3-2c0-0.7,0.1-1.3,0.3-1.9
			s0.5-1.1,0.9-1.5s0.8-0.7,1.3-1s1-0.4,1.6-0.4c0.6,0,1.1,0.1,1.5,0.3s0.8,0.5,1.1,0.9s0.5,0.8,0.7,1.4s0.2,1.1,0.2,1.8v0.6H267.2z
			 M272.6,110.1c0-0.9-0.2-1.7-0.7-2.2s-1-0.8-1.8-0.8c-0.4,0-0.7,0.1-1.1,0.2s-0.6,0.3-0.9,0.6s-0.4,0.6-0.6,0.9s-0.3,0.8-0.3,1.2
			H272.6z"/>
		<path d="M282,115.4v-5.2c0-2-0.7-3-2.2-3c-0.4,0-0.8,0.1-1.1,0.2s-0.6,0.4-0.9,0.6s-0.4,0.6-0.6,1s-0.2,0.8-0.2,1.2v5.2h-1.1v-9
			h1.1v1.6h0c0.7-1.2,1.7-1.8,3-1.8c1,0,1.7,0.3,2.2,1s0.8,1.6,0.8,2.8v5.5H282z"/>
		<path d="M297.1,115.4v-1.6h0c-0.3,0.6-0.7,1-1.3,1.3s-1.2,0.5-1.9,0.5c-0.6,0-1.1-0.1-1.5-0.3s-0.9-0.5-1.2-0.9s-0.6-0.9-0.8-1.4
			s-0.3-1.2-0.3-1.9c0-0.7,0.1-1.4,0.3-2s0.5-1.1,0.8-1.5s0.8-0.8,1.3-1s1.1-0.4,1.7-0.4c1.3,0,2.2,0.5,2.8,1.6h0v-5.7h1.1v13.3
			H297.1z M297.1,110c0-0.4-0.1-0.8-0.2-1.1s-0.3-0.6-0.6-0.9s-0.5-0.5-0.9-0.6s-0.7-0.2-1.1-0.2c-0.4,0-0.9,0.1-1.2,0.3
			s-0.7,0.4-1,0.8s-0.5,0.7-0.6,1.2s-0.2,1-0.2,1.6c0,0.6,0.1,1.1,0.2,1.5s0.3,0.8,0.6,1.1s0.5,0.5,0.9,0.7s0.7,0.2,1.2,0.2
			c0.5,0,0.9-0.1,1.2-0.2s0.7-0.4,0.9-0.7s0.5-0.6,0.6-1s0.2-0.8,0.2-1.2V110z"/>
		<path d="M301.7,104.1c-0.2,0-0.4-0.1-0.6-0.2s-0.2-0.3-0.2-0.6c0-0.2,0.1-0.4,0.2-0.6s0.3-0.2,0.6-0.2c0.1,0,0.2,0,0.3,0.1
			s0.2,0.1,0.3,0.2s0.1,0.2,0.2,0.3s0.1,0.2,0.1,0.3c0,0.1,0,0.2-0.1,0.3s-0.1,0.2-0.2,0.3s-0.2,0.1-0.3,0.2
			S301.8,104.1,301.7,104.1z M301.1,115.4v-9h1.1v9H301.1z"/>
		<path d="M312.6,114.7c0,1.7-0.4,2.9-1.1,3.7s-1.9,1.2-3.5,1.2c-1,0-1.9-0.2-2.8-0.7v-1.1c1,0.5,1.9,0.8,2.8,0.8
			c2.3,0,3.5-1.2,3.5-3.7v-1.1h0c-0.7,1.2-1.7,1.8-3.2,1.8c-0.6,0-1.1-0.1-1.5-0.3s-0.9-0.5-1.2-0.9s-0.6-0.9-0.8-1.4
			s-0.3-1.2-0.3-1.9c0-0.7,0.1-1.4,0.3-2s0.5-1.1,0.8-1.6s0.8-0.8,1.3-1s1.1-0.4,1.7-0.4c1.3,0,2.2,0.5,2.8,1.5h0v-1.3h1.1V114.7z
			 M311.5,109.9c0-0.4-0.1-0.7-0.2-1.1s-0.3-0.6-0.6-0.9s-0.5-0.5-0.9-0.6s-0.7-0.2-1.1-0.2c-0.5,0-0.9,0.1-1.3,0.3s-0.7,0.4-1,0.8
			s-0.5,0.7-0.6,1.2s-0.2,1-0.2,1.6c0,0.6,0.1,1,0.2,1.5s0.3,0.8,0.6,1.1s0.5,0.6,0.9,0.7s0.7,0.3,1.2,0.3c0.4,0,0.8-0.1,1.2-0.2
			s0.7-0.4,0.9-0.7s0.5-0.6,0.6-1s0.2-0.8,0.2-1.2V109.9z"/>
		<path d="M316,104.1c-0.2,0-0.4-0.1-0.6-0.2s-0.2-0.3-0.2-0.6c0-0.2,0.1-0.4,0.2-0.6s0.3-0.2,0.6-0.2c0.1,0,0.2,0,0.3,0.1
			s0.2,0.1,0.3,0.2s0.1,0.2,0.2,0.3s0.1,0.2,0.1,0.3c0,0.1,0,0.2-0.1,0.3s-0.1,0.2-0.2,0.3s-0.2,0.1-0.3,0.2S316.2,104.1,316,104.1z
			 M315.5,115.4v-9h1.1v9H315.5z"/>
		<path d="M323.4,115.3c-0.4,0.2-0.8,0.3-1.3,0.3c-1.5,0-2.2-0.8-2.2-2.5v-5.7h-1.6v-1h1.6v-2.3l1.1-0.4v2.6h2.3v1h-2.3v5.5
			c0,0.6,0.1,1,0.3,1.3s0.5,0.4,1,0.4c0.4,0,0.7-0.1,1-0.3V115.3z"/>
		<path d="M330.4,115.4v-1.6h0c-0.3,0.6-0.7,1-1.2,1.3s-1.1,0.5-1.7,0.5c-0.4,0-0.8-0.1-1.2-0.2s-0.6-0.3-0.9-0.5s-0.4-0.5-0.6-0.8
			s-0.2-0.7-0.2-1c0-0.8,0.3-1.5,0.8-1.9s1.3-0.8,2.3-0.9l2.7-0.4c0-1.7-0.7-2.6-2-2.6c-1,0-2,0.4-2.9,1.2v-1.2
			c0.2-0.1,0.4-0.3,0.6-0.4s0.5-0.2,0.8-0.3s0.5-0.1,0.8-0.2s0.5-0.1,0.8-0.1c1,0,1.8,0.3,2.3,0.8s0.8,1.4,0.8,2.5v5.9H330.4z
			 M328.1,111c-0.4,0.1-0.8,0.1-1,0.2s-0.5,0.2-0.7,0.4s-0.3,0.3-0.4,0.6s-0.1,0.5-0.1,0.8c0,0.2,0,0.5,0.1,0.7s0.2,0.4,0.4,0.5
			s0.4,0.3,0.6,0.3s0.5,0.1,0.8,0.1c0.4,0,0.8-0.1,1.1-0.2s0.6-0.4,0.9-0.6s0.4-0.6,0.6-1s0.2-0.8,0.2-1.2v-0.9L328.1,111z"/>
		<path d="M334.2,115.4v-13.3h1.1v13.3H334.2z"/>
		<path d="M343.5,115.4v-1.6h0c-0.3,0.6-0.7,1-1.2,1.3s-1.1,0.5-1.7,0.5c-0.4,0-0.8-0.1-1.2-0.2s-0.6-0.3-0.9-0.5s-0.4-0.5-0.6-0.8
			s-0.2-0.7-0.2-1c0-0.8,0.3-1.5,0.8-1.9s1.3-0.8,2.3-0.9l2.7-0.4c0-1.7-0.7-2.6-2-2.6c-1,0-2,0.4-2.9,1.2v-1.2
			c0.2-0.1,0.4-0.3,0.6-0.4s0.5-0.2,0.8-0.3s0.5-0.1,0.8-0.2s0.5-0.1,0.8-0.1c1,0,1.8,0.3,2.3,0.8s0.8,1.4,0.8,2.5v5.9H343.5z
			 M341.1,111c-0.4,0.1-0.8,0.1-1,0.2s-0.5,0.2-0.7,0.4s-0.3,0.3-0.4,0.6s-0.1,0.5-0.1,0.8c0,0.2,0,0.5,0.1,0.7s0.2,0.4,0.4,0.5
			s0.4,0.3,0.6,0.3s0.5,0.1,0.8,0.1c0.4,0,0.8-0.1,1.1-0.2s0.6-0.4,0.9-0.6s0.4-0.6,0.6-1s0.2-0.8,0.2-1.2v-0.9L341.1,111z"/>
		<path d="M356.1,115.3c-0.4,0.2-0.8,0.3-1.3,0.3c-1.5,0-2.2-0.8-2.2-2.5v-5.7h-1.6v-1h1.6v-2.3l1.1-0.4v2.6h2.3v1h-2.3v5.5
			c0,0.6,0.1,1,0.3,1.3s0.5,0.4,1,0.4c0.4,0,0.7-0.1,1-0.3V115.3z"/>
		<path d="M362.4,107.5c-0.3-0.2-0.6-0.3-1-0.3c-0.3,0-0.6,0.1-0.8,0.2s-0.4,0.3-0.6,0.5s-0.3,0.4-0.4,0.7s-0.2,0.5-0.3,0.8
			s-0.1,0.6-0.2,0.8s0,0.5,0,0.8v4.4h-1.1v-9h1.1v1.9h0c0.1-0.3,0.2-0.6,0.4-0.9s0.3-0.5,0.6-0.7s0.4-0.3,0.7-0.4s0.5-0.1,0.8-0.1
			c0.2,0,0.3,0,0.5,0s0.3,0.1,0.4,0.1V107.5z"/>
		<path d="M369.2,115.4v-1.6h0c-0.3,0.6-0.7,1-1.2,1.3s-1.1,0.5-1.7,0.5c-0.4,0-0.8-0.1-1.2-0.2s-0.6-0.3-0.9-0.5s-0.4-0.5-0.6-0.8
			s-0.2-0.7-0.2-1c0-0.8,0.3-1.5,0.8-1.9s1.3-0.8,2.3-0.9l2.7-0.4c0-1.7-0.7-2.6-2-2.6c-1,0-2,0.4-2.9,1.2v-1.2
			c0.2-0.1,0.4-0.3,0.6-0.4s0.5-0.2,0.8-0.3s0.5-0.1,0.8-0.2s0.5-0.1,0.8-0.1c1,0,1.8,0.3,2.3,0.8s0.8,1.4,0.8,2.5v5.9H369.2z
			 M366.9,111c-0.4,0.1-0.8,0.1-1,0.2s-0.5,0.2-0.7,0.4s-0.3,0.3-0.4,0.6s-0.1,0.5-0.1,0.8c0,0.2,0,0.5,0.1,0.7s0.2,0.4,0.4,0.5
			s0.4,0.3,0.6,0.3s0.5,0.1,0.8,0.1c0.4,0,0.8-0.1,1.1-0.2s0.6-0.4,0.9-0.6s0.4-0.6,0.6-1s0.2-0.8,0.2-1.2v-0.9L366.9,111z"/>
		<path d="M379.1,115.4v-5.2c0-2-0.7-3-2.2-3c-0.4,0-0.8,0.1-1.1,0.2s-0.6,0.4-0.9,0.6s-0.4,0.6-0.6,1s-0.2,0.8-0.2,1.2v5.2h-1.1v-9
			h1.1v1.6h0c0.7-1.2,1.7-1.8,3-1.8c1,0,1.7,0.3,2.2,1s0.8,1.6,0.8,2.8v5.5H379.1z"/>
		<path d="M382.5,113.8c0.2,0.1,0.4,0.3,0.6,0.4s0.4,0.2,0.6,0.3s0.4,0.1,0.6,0.2s0.4,0.1,0.6,0.1c1.3,0,2-0.5,2-1.5
			c0-0.2,0-0.4-0.1-0.6s-0.2-0.3-0.4-0.5s-0.4-0.3-0.6-0.4s-0.5-0.2-0.8-0.4c-0.4-0.2-0.8-0.3-1.1-0.5s-0.5-0.4-0.7-0.6
			s-0.3-0.4-0.4-0.7s-0.1-0.5-0.1-0.8c0-0.4,0.1-0.8,0.3-1.1s0.4-0.6,0.7-0.8s0.6-0.4,1-0.5s0.8-0.2,1.2-0.2c0.8,0,1.5,0.1,2,0.4
			v1.2c-0.7-0.4-1.4-0.7-2.2-0.7c-0.3,0-0.5,0-0.8,0.1s-0.4,0.2-0.6,0.3s-0.3,0.3-0.4,0.5s-0.1,0.4-0.1,0.6c0,0.2,0,0.4,0.1,0.6
			s0.2,0.3,0.3,0.5s0.3,0.3,0.6,0.4s0.5,0.3,0.9,0.4c0.4,0.2,0.8,0.4,1.1,0.5s0.6,0.4,0.8,0.6s0.4,0.4,0.5,0.7s0.1,0.5,0.1,0.9
			c0,0.4-0.1,0.8-0.3,1.1s-0.4,0.6-0.7,0.8s-0.6,0.4-1,0.5s-0.8,0.2-1.3,0.2c-0.9,0-1.7-0.2-2.3-0.6V113.8z"/>
		<path d="M394.5,103.1c-0.3-0.2-0.6-0.2-1-0.2c-1.1,0-1.6,0.7-1.6,2.1v1.4h2.2v1h-2.2v8h-1.1v-8h-1.6v-1h1.6v-1.5
			c0-0.5,0.1-0.9,0.2-1.2s0.3-0.7,0.5-0.9s0.5-0.5,0.8-0.6s0.7-0.2,1.2-0.2c0.4,0,0.8,0.1,1,0.2V103.1z"/>
		<path d="M399.3,115.6c-0.7,0-1.3-0.1-1.8-0.3s-1-0.5-1.4-0.9s-0.7-0.9-0.9-1.5s-0.3-1.2-0.3-1.9c0-0.8,0.1-1.4,0.3-2
			s0.5-1.1,0.9-1.5s0.9-0.7,1.4-0.9s1.2-0.3,1.8-0.3c0.7,0,1.2,0.1,1.8,0.3s1,0.5,1.3,0.9s0.6,0.9,0.8,1.5s0.3,1.2,0.3,2
			c0,0.7-0.1,1.3-0.3,1.9s-0.5,1.1-0.9,1.5s-0.8,0.7-1.4,1S399.9,115.6,399.3,115.6z M399.3,107.2c-0.5,0-0.9,0.1-1.3,0.3
			s-0.7,0.4-1,0.7s-0.5,0.7-0.7,1.2s-0.2,1-0.2,1.6c0,0.6,0.1,1.1,0.2,1.5s0.4,0.8,0.6,1.2s0.6,0.6,1,0.7s0.8,0.3,1.3,0.3
			c0.5,0,0.9-0.1,1.3-0.3s0.7-0.4,1-0.7s0.5-0.7,0.6-1.2s0.2-1,0.2-1.6c0-1.2-0.3-2.1-0.8-2.8S400.3,107.2,399.3,107.2z"/>
		<path d="M410.4,107.5c-0.3-0.2-0.6-0.3-1-0.3c-0.3,0-0.6,0.1-0.8,0.2s-0.4,0.3-0.6,0.5s-0.3,0.4-0.4,0.7s-0.2,0.5-0.3,0.8
			s-0.1,0.6-0.2,0.8s0,0.5,0,0.8v4.4h-1.1v-9h1.1v1.9h0c0.1-0.3,0.2-0.6,0.4-0.9s0.3-0.5,0.6-0.7s0.4-0.3,0.7-0.4s0.5-0.1,0.8-0.1
			c0.2,0,0.3,0,0.5,0s0.3,0.1,0.4,0.1V107.5z"/>
		<path d="M423.3,115.4v-5.3c0-0.5,0-1-0.1-1.4s-0.2-0.7-0.4-0.9s-0.4-0.4-0.7-0.5s-0.6-0.2-1-0.2c-0.3,0-0.6,0.1-0.9,0.2
			s-0.5,0.4-0.8,0.6s-0.4,0.6-0.5,1s-0.2,0.8-0.2,1.2v5.2h-1.1V110c0-1.9-0.7-2.8-2.2-2.8c-0.3,0-0.6,0.1-0.9,0.2s-0.5,0.4-0.8,0.6
			s-0.4,0.6-0.5,1s-0.2,0.8-0.2,1.3v5.2H412v-9h1.1v1.5h0c0.6-1.1,1.6-1.7,2.8-1.7c0.3,0,0.6,0,0.9,0.1s0.5,0.2,0.8,0.4
			s0.4,0.4,0.6,0.6s0.3,0.5,0.4,0.8c0.3-0.6,0.7-1.1,1.2-1.5s1.1-0.5,1.7-0.5c2,0,3,1.2,3,3.7v5.6H423.3z"/>
		<path d="M432.3,115.4v-1.6h0c-0.3,0.6-0.7,1-1.2,1.3s-1.1,0.5-1.7,0.5c-0.4,0-0.8-0.1-1.2-0.2s-0.6-0.3-0.9-0.5s-0.4-0.5-0.6-0.8
			s-0.2-0.7-0.2-1c0-0.8,0.3-1.5,0.8-1.9s1.3-0.8,2.3-0.9l2.7-0.4c0-1.7-0.7-2.6-2-2.6c-1,0-2,0.4-2.9,1.2v-1.2
			c0.2-0.1,0.4-0.3,0.6-0.4s0.5-0.2,0.8-0.3s0.5-0.1,0.8-0.2s0.5-0.1,0.8-0.1c1,0,1.8,0.3,2.3,0.8s0.8,1.4,0.8,2.5v5.9H432.3z
			 M430,111c-0.4,0.1-0.8,0.1-1,0.2s-0.5,0.2-0.7,0.4s-0.3,0.3-0.4,0.6s-0.1,0.5-0.1,0.8c0,0.2,0,0.5,0.1,0.7s0.2,0.4,0.4,0.5
			s0.4,0.3,0.6,0.3s0.5,0.1,0.8,0.1c0.4,0,0.8-0.1,1.1-0.2s0.6-0.4,0.9-0.6s0.4-0.6,0.6-1s0.2-0.8,0.2-1.2v-0.9L430,111z"/>
		<path d="M440,115.3c-0.4,0.2-0.8,0.3-1.3,0.3c-1.5,0-2.2-0.8-2.2-2.5v-5.7H435v-1h1.6v-2.3l1.1-0.4v2.6h2.3v1h-2.3v5.5
			c0,0.6,0.1,1,0.3,1.3s0.5,0.4,1,0.4c0.4,0,0.7-0.1,1-0.3V115.3z"/>
		<path d="M442.4,104.1c-0.2,0-0.4-0.1-0.6-0.2s-0.2-0.3-0.2-0.6c0-0.2,0.1-0.4,0.2-0.6s0.3-0.2,0.6-0.2c0.1,0,0.2,0,0.3,0.1
			s0.2,0.1,0.3,0.2s0.1,0.2,0.2,0.3s0.1,0.2,0.1,0.3c0,0.1,0,0.2-0.1,0.3s-0.1,0.2-0.2,0.3s-0.2,0.1-0.3,0.2
			S442.5,104.1,442.4,104.1z M441.8,115.4v-9h1.1v9H441.8z"/>
		<path d="M449.5,115.6c-0.7,0-1.3-0.1-1.8-0.3s-1-0.5-1.4-0.9s-0.7-0.9-0.9-1.5s-0.3-1.2-0.3-1.9c0-0.8,0.1-1.4,0.3-2
			s0.5-1.1,0.9-1.5s0.9-0.7,1.4-0.9s1.2-0.3,1.8-0.3c0.7,0,1.2,0.1,1.8,0.3s1,0.5,1.3,0.9s0.6,0.9,0.8,1.5s0.3,1.2,0.3,2
			c0,0.7-0.1,1.3-0.3,1.9s-0.5,1.1-0.9,1.5s-0.8,0.7-1.4,1S450.2,115.6,449.5,115.6z M449.6,107.2c-0.5,0-0.9,0.1-1.3,0.3
			s-0.7,0.4-1,0.7s-0.5,0.7-0.7,1.2s-0.2,1-0.2,1.6c0,0.6,0.1,1.1,0.2,1.5s0.4,0.8,0.6,1.2s0.6,0.6,1,0.7s0.8,0.3,1.3,0.3
			c0.5,0,0.9-0.1,1.3-0.3s0.7-0.4,1-0.7s0.5-0.7,0.6-1.2s0.2-1,0.2-1.6c0-1.2-0.3-2.1-0.8-2.8S450.6,107.2,449.6,107.2z"/>
		<path d="M462.3,115.4v-5.2c0-2-0.7-3-2.2-3c-0.4,0-0.8,0.1-1.1,0.2s-0.6,0.4-0.9,0.6s-0.4,0.6-0.6,1s-0.2,0.8-0.2,1.2v5.2h-1.1v-9
			h1.1v1.6h0c0.7-1.2,1.7-1.8,3-1.8c1,0,1.7,0.3,2.2,1s0.8,1.6,0.8,2.8v5.5H462.3z"/>
		<path d="M466.6,111.1c0,0.6,0.1,1,0.2,1.5s0.3,0.8,0.6,1.1s0.6,0.5,1,0.7s0.8,0.2,1.3,0.2c1,0,2-0.4,2.9-1.1v1.1
			c-0.9,0.6-1.9,0.9-3.1,0.9c-0.6,0-1.2-0.1-1.6-0.3s-0.9-0.5-1.3-0.9s-0.6-0.9-0.8-1.5s-0.3-1.3-0.3-2c0-0.7,0.1-1.3,0.3-1.9
			s0.5-1.1,0.9-1.5s0.8-0.7,1.3-1s1-0.4,1.6-0.4c0.6,0,1.1,0.1,1.5,0.3s0.8,0.5,1.1,0.9s0.5,0.8,0.7,1.4s0.2,1.1,0.2,1.8v0.6H466.6z
			 M472,110.1c0-0.9-0.2-1.7-0.7-2.2s-1-0.8-1.8-0.8c-0.4,0-0.7,0.1-1.1,0.2s-0.6,0.3-0.9,0.6s-0.4,0.6-0.6,0.9s-0.3,0.8-0.3,1.2
			H472z"/>
		<path d="M481.4,115.4v-5.2c0-2-0.7-3-2.2-3c-0.4,0-0.8,0.1-1.1,0.2s-0.6,0.4-0.9,0.6s-0.4,0.6-0.6,1s-0.2,0.8-0.2,1.2v5.2h-1.1v-9
			h1.1v1.6h0c0.7-1.2,1.7-1.8,3-1.8c1,0,1.7,0.3,2.2,1s0.8,1.6,0.8,2.8v5.5H481.4z"/>
	</g>
	<line class="st0" x1="153.1" y1="91.3" x2="471.2" y2="91.3"/>
	<g transform="translate(-108.9 -113.6)">
		
			<linearGradient id="SVGID_1_" gradientUnits="userSpaceOnUse" x1="505.6671" y1="647.9338" x2="505.6671" y2="692.1199" gradientTransform="matrix(2.8081 0 0 -2.8081 -1249.7798 2065.4536)">
			<stop  offset="0" style="stop-color:#C81617"/>
			<stop  offset="1" style="stop-color:#F9AF12"/>
		</linearGradient>
		<path class="st1" d="M170.2,246.1l-53.7-31V153l53.7-31l53.7,31v62.1L170.2,246.1"/>
		<g>
			
				<linearGradient id="SVGID_00000166669008773168953910000017984619506053396119_" gradientUnits="userSpaceOnUse" x1="424.9911" y1="641.039" x2="424.9911" y2="667.2812" gradientTransform="matrix(2.8081 0 0 -2.8081 -1022.0671 2019.0068)">
				<stop  offset="0" style="stop-color:#C81617"/>
				<stop  offset="1" style="stop-color:#F9AF12"/>
			</linearGradient>
			<path style="fill:url(#SVGID_00000166669008773168953910000017984619506053396119_);" d="M141.2,151.7h55.9v19.2h-2
				c-1.1-4.9-2.7-8.8-4.9-11.5c-2.2-2.7-5.9-4.1-11.2-4.1h-17.8l16.1,22.8l-21,26.5h30c4.1,0,7.2-0.7,9.2-2c2-1.4,3.6-4.1,4.7-8.2
				h1.8l-1.8,23.1h-59.3l25.2-31.5L141.2,151.7z"/>
		</g>
	</g>
</g>
</svg>
